<svg width="24" height="38" viewBox="0 0 24 38" fill="none" xmlns="http://www.w3.org/2000/svg">
<path d="M6.58594 37.3307C5.7526 37.3307 5.02344 37.0599 4.39844 36.5182C3.77344 35.9766 3.40538 35.2891 3.29427 34.4557L0.335938 12.3307H23.6693L20.7109 34.4557C20.5998 35.2891 20.2318 35.9766 19.6068 36.5182C18.9818 37.0599 18.2526 37.3307 17.4193 37.3307H6.58594ZM6.58594 33.9974H17.4193L19.8359 15.6641H4.1276L6.58594 33.9974ZM12.0026 25.6641C13.3915 25.6641 14.572 25.178 15.5443 24.2057C16.5165 23.2335 17.0026 22.053 17.0026 20.6641V17.3307H13.6693V20.6641C13.6693 21.1363 13.5095 21.5321 13.1901 21.8516C12.8707 22.171 12.4748 22.3307 12.0026 22.3307C11.5304 22.3307 11.1345 22.171 10.8151 21.8516C10.4957 21.5321 10.3359 21.1363 10.3359 20.6641V17.3307H7.0026V20.6641C7.0026 22.053 7.48872 23.2335 8.46094 24.2057C9.43316 25.178 10.6137 25.6641 12.0026 25.6641ZM17.0026 10.6641C16.3082 10.6641 15.7179 10.421 15.2318 9.9349C14.7457 9.44878 14.5026 8.85851 14.5026 8.16406C14.5026 7.46962 14.7457 6.87934 15.2318 6.39323C15.7179 5.90712 16.3082 5.66406 17.0026 5.66406C17.6971 5.66406 18.2873 5.90712 18.7734 6.39323C19.2596 6.87934 19.5026 7.46962 19.5026 8.16406C19.5026 8.85851 19.2596 9.44878 18.7734 9.9349C18.2873 10.421 17.6971 10.6641 17.0026 10.6641ZM8.66927 8.9974C7.5026 8.9974 6.51649 8.59462 5.71094 7.78906C4.90538 6.98351 4.5026 5.9974 4.5026 4.83073C4.5026 3.66406 4.90538 2.67795 5.71094 1.8724C6.51649 1.06684 7.5026 0.664062 8.66927 0.664062C9.83594 0.664062 10.822 1.06684 11.6276 1.8724C12.4332 2.67795 12.8359 3.66406 12.8359 4.83073C12.8359 5.9974 12.4332 6.98351 11.6276 7.78906C10.822 8.59462 9.83594 8.9974 8.66927 8.9974Z" fill="#1C1B1F"/>
</svg>
