<svg width="762" height="477" viewBox="0 0 762 477" fill="none" xmlns="http://www.w3.org/2000/svg">
<path d="M253.273 301.349L284.581 319.639L266.691 363.726L248.782 366.998L246.061 384.257L209.387 421.956L192.391 460.687L204.896 476.869L184.378 470.392L177.166 448.853L197.74 348.776L180.726 330.487L172.731 291.779L182.347 272.839L173.57 274.431L161.084 255.11L150.331 248.655L125.286 237.874L104.675 199.144L92.1705 171.172V133.472L71.5971 91.5143L45.6194 72.1266L29.5184 82.8851L0 100.143L18.7658 81.8541L7.11871 78.6041L2.70213 60.3147L16.101 47.3821L2.70213 45.2528L5.34835 33.4185H15.2065L6.26148 17.2584L30.4129 0L74.2619 29.0927L90.4188 10.8033L125.286 35.5478L192.391 26.8738V67.8008L165.557 74.2335L160.171 91.5143L186.13 124.843L192.391 123.767L196.827 81.8092L213.897 80.7558L220.997 104.38L229.96 97.947L249.639 150.731L221.91 165.725L200.442 179.756L183.447 207.751V221.759L177.166 222.812L172.731 207.751L148.561 212.032L143.194 230.299L149.437 241.079L158.363 232.428L167.327 233.481L162.854 248.835L173.57 249.753L177.166 265.869L184.397 268.76L189.727 258.293L225.525 262.596L249.639 284.136L253.273 301.349ZM677.116 291.756L675.178 310.001L662.338 304.353L664.705 294.513L650.616 293.101L632.372 313.542L613.01 321.992L617.706 353.64L615.917 359.983L623.017 364.892L651.735 356.352L662.878 364.174L668.152 360.678L671.656 373.431L686.284 378.407L696.869 370.585L702.702 332.616L686.806 313.542L677.116 291.756ZM605.985 274.072L621.21 277.569L628.254 251.524L624.117 247.243L603.599 262.776L605.985 274.072ZM652.853 266.967L668.693 286.736L677.768 287.453L681.588 283.239L694.484 293.056L689.21 279.653L665.152 265.6L652.853 266.967ZM681.607 106.912H677.489L676.911 132.284L666.363 159.113L652.871 171.082L652.294 181.661L676.911 164.044L678.085 145.688L686.247 136.565L679.818 130.267L683.321 115.407L681.607 106.912ZM744.986 362.919L746.738 382.621L728.568 403.107L740.29 404.519L750.781 385.422L758.981 372.064L753.707 371.369L744.986 362.919ZM352.935 66.1198V86.673L364.806 80.4196L368.16 74.1438L355.32 44.4235L347.736 50.7666L348.202 58.7009L341.064 69.056L340.58 79.8593H349.152L352.935 66.1198ZM460.2 308.073L459.734 330.958L467.375 334.947L474.941 307.535L473.003 296.06L460.2 308.073ZM723.872 68.7646L724.45 85.0144L709.206 107.607L708.628 82.1903L728.531 53.2545L716.269 55.4286L700.391 70.9163L681.011 69.5266L666.382 86.4712L676.911 95.616L664.63 136.521L654.101 138.695L647.616 149.969L650.523 164.784L642.92 169.67L640.553 156.289L634.068 145.665L625.272 156.894L632.298 180.854L622.365 202.775L600.636 204.164L595.978 213.354L605.91 230.971L595.381 241.573L584.573 228.057L584.181 240.788L593.611 253.519L597.729 276.067L609.488 281.088L625.365 288.843L596.033 282.522L583.697 268.424L572.59 249.328L587.759 258.517L580.734 243.074L579.299 221.983L572.59 224.023L564.391 202.909L541.488 221.983V234.064L533.27 243.881L522.778 212.144L511.075 195.199L482.898 188.856L474.717 180.451L470.58 183.253L476.413 200.197L485.768 194.549L498.105 205.823L461.784 231.912L442.963 187.489L439.031 188.318L458.206 241.079L476.972 230.478L471.139 255.2L452.355 275.596L455.262 305.944L444.714 315.784L425.427 359.512L406.046 363.748L389.05 314.372L393.188 291.824L382.621 252.264L346.841 255.066L326.864 231.8L330.405 193.72L349.767 165.501L387.28 157.746L389.647 169.693L404.909 181.661L410.742 171.822L434.036 178.994L440.055 174.623L442.72 164.089L426.638 160.839L421.439 150.036L417.656 147.705L414.339 161.4L407.164 150.529L407.63 141.429L398.051 132.307L392.368 128.878L392.852 138.022L404.741 147.727L398.554 156.334L390.038 142.617L383.87 134.01L369.614 142.617L359.644 161.467L344.456 158.62L343.506 135.781L362.942 137.417L356.811 125.493L352.991 115.721L367.713 109.983L375.782 96.8935L382.435 96.2884L381 88.8919L385.267 82.011L388.603 93.4194L407.108 93.9798L412.307 77.9541L419.482 80.8455L417.078 70.0197L428.11 65.7836L424.681 60.8974L414.693 64.2595L411.189 54.0165L410.761 53.9493L411.059 53.232L409.605 48.9287L413.612 45.4994L417.115 34.7633L413.407 34.0909L407.22 43.2356L402.021 56.8854L407.779 64.2819L402.021 82.5713L393.467 86.5833L388.752 68.3387L378.764 75.1973L374.03 71.7904L374.478 54.0837L383.05 46.1494L390.187 25.0135L408.245 13.0671L453.305 23.0187C505.279 16.4515 599.593 4.41547 599.593 4.41547L755.198 30.841L761.05 50.5872L739.898 64.7302L723.872 68.7646ZM456.939 140.264L432.266 124.843L424.681 140.824L427.998 148.198L442.292 145.374L452.746 148.803L456.939 140.264ZM482.991 159.629L480.681 141.945L475.891 133.383L481.65 130.514V121.974L466.909 131.679L472.09 147.682L469.76 158.508L482.991 159.629ZM270.38 20.9118L257.168 16.5412L240.825 37.5426L261.827 103.326L271.759 106.285L272.542 84.9023L279.27 79.9265L279.661 71.8128L286.593 56.1458L281.748 44.3339L270.38 20.9118Z" fill="#CC5500"/>
</svg>
