<svg width="36" height="38" viewBox="0 0 36 38" fill="none" xmlns="http://www.w3.org/2000/svg">
<path d="M16.3413 17.3307H19.6746V5.66406C19.6746 5.19184 19.5149 4.79601 19.1955 4.47656C18.876 4.15712 18.4802 3.9974 18.008 3.9974C17.5357 3.9974 17.1399 4.15712 16.8205 4.47656C16.501 4.79601 16.3413 5.19184 16.3413 5.66406V17.3307ZM6.3413 23.9974H29.6746V20.6641H6.3413V23.9974ZM3.92463 33.9974H8.00797V30.6641C8.00797 30.1918 8.16769 29.796 8.48713 29.4766C8.80658 29.1571 9.20241 28.9974 9.67463 28.9974C10.1469 28.9974 10.5427 29.1571 10.8621 29.4766C11.1816 29.796 11.3413 30.1918 11.3413 30.6641V33.9974H16.3413V30.6641C16.3413 30.1918 16.501 29.796 16.8205 29.4766C17.1399 29.1571 17.5357 28.9974 18.008 28.9974C18.4802 28.9974 18.876 29.1571 19.1955 29.4766C19.5149 29.796 19.6746 30.1918 19.6746 30.6641V33.9974H24.6746V30.6641C24.6746 30.1918 24.8344 29.796 25.1538 29.4766C25.4732 29.1571 25.8691 28.9974 26.3413 28.9974C26.8135 28.9974 27.2094 29.1571 27.5288 29.4766C27.8482 29.796 28.008 30.1918 28.008 30.6641V33.9974H32.0913L30.4246 27.3307H5.5913L3.92463 33.9974ZM32.0913 37.3307H3.92463C2.8413 37.3307 1.9663 36.9002 1.29963 36.0391C0.632966 35.178 0.438521 34.2196 0.716299 33.1641L3.00797 23.9974V20.6641C3.00797 19.7474 3.33435 18.9627 3.98713 18.3099C4.63991 17.6571 5.42463 17.3307 6.3413 17.3307H13.008V5.66406C13.008 4.27517 13.4941 3.09462 14.4663 2.1224C15.4385 1.15017 16.6191 0.664062 18.008 0.664062C19.3969 0.664062 20.5774 1.15017 21.5496 2.1224C22.5219 3.09462 23.008 4.27517 23.008 5.66406V17.3307H29.6746C30.5913 17.3307 31.376 17.6571 32.0288 18.3099C32.6816 18.9627 33.008 19.7474 33.008 20.6641V23.9974L35.2996 33.1641C35.6607 34.2196 35.501 35.178 34.8205 36.0391C34.1399 36.9002 33.2302 37.3307 32.0913 37.3307Z" fill="#1C1B1F"/>
</svg>
