<svg width="28" height="34" viewBox="0 0 28 34" fill="none" xmlns="http://www.w3.org/2000/svg">
<path d="M26.1224 12.2943L20.2474 6.41927L16.7057 9.91927L13.1641 6.41927L17.8724 1.66927C18.2057 1.33594 18.5807 1.09288 18.9974 0.940104C19.4141 0.787326 19.8307 0.710938 20.2474 0.710938C20.6918 0.710938 21.1155 0.787326 21.5182 0.940104C21.921 1.09288 22.2752 1.33594 22.5807 1.66927L26.1224 5.21094C26.6224 5.68316 26.9905 6.23177 27.2266 6.85677C27.4627 7.48177 27.5807 8.11372 27.5807 8.75261C27.5807 9.39149 27.4627 10.0165 27.2266 10.6276C26.9905 11.2387 26.6224 11.7943 26.1224 12.2943ZM3.16406 19.9609C2.66406 19.4609 2.41406 18.8707 2.41406 18.1901C2.41406 17.5096 2.66406 16.9193 3.16406 16.4193L7.2474 12.2943L10.7891 15.8359L6.66406 19.9609C6.19184 20.4609 5.61545 20.7109 4.9349 20.7109C4.25434 20.7109 3.66406 20.4609 3.16406 19.9609ZM1.3724 32.3359C1.06684 32.0026 0.830729 31.6346 0.664062 31.2318C0.497396 30.829 0.414062 30.4054 0.414062 29.9609C0.414062 29.5165 0.490451 29.0929 0.643229 28.6901C0.796007 28.2873 1.03906 27.9193 1.3724 27.5859L13.1641 15.8359L7.8724 10.5026C7.3724 10.0304 7.1224 9.45399 7.1224 8.77344C7.1224 8.09288 7.3724 7.5026 7.8724 7.0026C8.34462 6.5026 8.92795 6.2526 9.6224 6.2526C10.3168 6.2526 10.9141 6.5026 11.4141 7.0026L16.7057 12.2943L19.0807 9.91927L23.7474 14.6693C24.0807 15.0026 24.2474 15.3915 24.2474 15.8359C24.2474 16.2804 24.0807 16.6693 23.7474 17.0026C23.4141 17.3359 23.0252 17.5026 22.5807 17.5026C22.1363 17.5026 21.7474 17.3359 21.4141 17.0026L6.08073 32.3359C5.7474 32.6693 5.37934 32.9123 4.97656 33.0651C4.57378 33.2179 4.16406 33.2943 3.7474 33.2943C3.33073 33.2943 2.91406 33.2109 2.4974 33.0443C2.08073 32.8776 1.70573 32.6415 1.3724 32.3359Z" fill="#1C1B1F"/>
</svg>
