<svg width="38" height="36" viewBox="0 0 38 36" fill="none" xmlns="http://www.w3.org/2000/svg">
<path d="M5.66406 35.6641C4.27517 35.6641 3.09462 35.178 2.1224 34.2057C1.15017 33.2335 0.664062 32.0529 0.664062 30.6641C0.664062 29.2752 1.15017 28.0946 2.1224 27.1224C3.09462 26.1502 4.27517 25.6641 5.66406 25.6641C7.05295 25.6641 8.23351 26.1502 9.20573 27.1224C10.178 28.0946 10.6641 29.2752 10.6641 30.6641C10.6641 32.0529 10.178 33.2335 9.20573 34.2057C8.23351 35.178 7.05295 35.6641 5.66406 35.6641ZM5.66406 32.3307C6.13628 32.3307 6.53212 32.171 6.85156 31.8516C7.17101 31.5321 7.33073 31.1363 7.33073 30.6641C7.33073 30.1918 7.17101 29.796 6.85156 29.4766C6.53212 29.1571 6.13628 28.9974 5.66406 28.9974C5.19184 28.9974 4.79601 29.1571 4.47656 29.4766C4.15712 29.796 3.9974 30.1918 3.9974 30.6641C3.9974 31.1363 4.15712 31.5321 4.47656 31.8516C4.79601 32.171 5.19184 32.3307 5.66406 32.3307ZM12.3307 35.6641C12.7196 35.1641 13.0321 34.6432 13.2682 34.1016C13.5043 33.5599 13.6918 32.9696 13.8307 32.3307H17.3307V20.6641C17.3307 19.7474 17.0043 18.9627 16.3516 18.3099C15.6988 17.6571 14.9141 17.3307 13.9974 17.3307H5.66406V22.3307C5.08073 22.3307 4.50434 22.3863 3.9349 22.4974C3.36545 22.6085 2.83073 22.7752 2.33073 22.9974V13.9974H7.33073V8.33073C7.33073 6.19184 8.07379 4.37934 9.5599 2.89323C11.046 1.40712 12.8585 0.664062 14.9974 0.664062C16.553 0.664062 17.9696 1.08767 19.2474 1.9349C20.5252 2.78212 21.4696 3.91406 22.0807 5.33073L33.4557 32.3307H37.3307V35.6641H25.6641V32.3307H29.8307L19.0391 6.66406C18.7057 5.85851 18.171 5.21267 17.4349 4.72656C16.6988 4.24045 15.8863 3.9974 14.9974 3.9974C13.7752 3.9974 12.7474 4.41406 11.9141 5.2474C11.0807 6.08073 10.6641 7.10851 10.6641 8.33073V13.9974H13.9974C15.8307 13.9974 17.4002 14.6502 18.7057 15.9557C20.0113 17.2613 20.6641 18.8307 20.6641 20.6641V35.6641H12.3307Z" fill="#1C1B1F"/>
</svg>
