<svg width="28" height="34" viewBox="0 0 28 34" fill="none" xmlns="http://www.w3.org/2000/svg">
<path d="M9.4974 14.9609C9.4974 15.4887 9.58767 16.0026 9.76823 16.5026C9.94878 17.0026 10.2057 17.4609 10.5391 17.8776C10.5946 17.5443 10.7057 17.2179 10.8724 16.8984C11.0391 16.579 11.2474 16.3082 11.4974 16.0859L13.9974 13.6693L16.4557 16.1276C16.7057 16.3498 16.9141 16.6137 17.0807 16.9193C17.2474 17.2248 17.3585 17.5443 17.4141 17.8776C17.7196 17.4609 17.9905 17.0165 18.2266 16.5443C18.4627 16.072 18.5807 15.572 18.5807 15.0443C18.5807 14.5165 18.4974 14.0095 18.3307 13.5234C18.1641 13.0373 17.9141 12.5859 17.5807 12.1693C17.2752 12.3082 16.9627 12.4193 16.6432 12.5026C16.3238 12.5859 15.9974 12.6276 15.6641 12.6276C14.8307 12.6276 14.0668 12.3915 13.3724 11.9193C12.678 11.447 12.1502 10.822 11.7891 10.0443C11.4557 10.3776 11.1502 10.7318 10.8724 11.1068C10.5946 11.4818 10.3516 11.8776 10.1432 12.2943C9.9349 12.7109 9.77517 13.1415 9.66406 13.5859C9.55295 14.0304 9.4974 14.4887 9.4974 14.9609ZM13.9974 17.1693L13.2891 17.8776C13.178 17.9887 13.1016 18.0998 13.0599 18.2109C13.0182 18.322 12.9974 18.447 12.9974 18.5859C12.9974 18.8637 13.0946 19.0859 13.2891 19.2526C13.4835 19.4193 13.7196 19.5026 13.9974 19.5026C14.2752 19.5026 14.5113 19.4193 14.7057 19.2526C14.9002 19.0859 14.9974 18.8637 14.9974 18.5859C14.9974 18.447 14.9766 18.322 14.9349 18.2109C14.8932 18.0998 14.8168 17.9887 14.7057 17.8776L13.9974 17.1693ZM13.9974 5.33594V8.5026C13.9974 8.97483 14.1641 9.37066 14.4974 9.6901C14.8307 10.0095 15.2335 10.1693 15.7057 10.1693C16.0113 10.1693 16.2891 10.079 16.5391 9.89844C16.7891 9.71788 17.0113 9.5026 17.2057 9.2526L17.4974 8.83594C18.6363 9.47483 19.5182 10.3429 20.1432 11.4401C20.7682 12.5373 21.0807 13.7387 21.0807 15.0443C21.0807 16.9887 20.3863 18.6345 18.9974 19.9818C17.6085 21.329 15.9418 22.0026 13.9974 22.0026C12.053 22.0026 10.4002 21.3221 9.03906 19.9609C7.67795 18.5998 6.9974 16.947 6.9974 15.0026C6.9974 12.8637 7.67795 10.9609 9.03906 9.29427C10.4002 7.6276 12.053 6.30816 13.9974 5.33594ZM3.9974 33.6693C3.08073 33.6693 2.29601 33.3429 1.64323 32.6901C0.990451 32.0373 0.664062 31.2526 0.664062 30.3359V7.0026C0.664062 5.16927 1.31684 3.59983 2.6224 2.29427C3.92795 0.988715 5.4974 0.335938 7.33073 0.335938H20.6641C22.4974 0.335938 24.0668 0.988715 25.3724 2.29427C26.6779 3.59983 27.3307 5.16927 27.3307 7.0026V30.3359C27.3307 31.2526 27.0043 32.0373 26.3516 32.6901C25.6988 33.3429 24.9141 33.6693 23.9974 33.6693H3.9974ZM3.9974 27.0026V30.3359H23.9974V27.0026C23.1641 27.0026 22.4974 27.2804 21.9974 27.8359C21.4974 28.3915 20.4974 28.6693 18.9974 28.6693C17.4974 28.6693 16.5182 28.3915 16.0599 27.8359C15.6016 27.2804 14.9141 27.0026 13.9974 27.0026C13.0807 27.0026 12.3932 27.2804 11.9349 27.8359C11.4766 28.3915 10.4974 28.6693 8.9974 28.6693C7.4974 28.6693 6.51823 28.3915 6.0599 27.8359C5.60156 27.2804 4.91406 27.0026 3.9974 27.0026ZM8.9974 25.3359C9.91406 25.3359 10.6016 25.0582 11.0599 24.5026C11.5182 23.947 12.4974 23.6693 13.9974 23.6693C15.4974 23.6693 16.4974 23.947 16.9974 24.5026C17.4974 25.0582 18.1641 25.3359 18.9974 25.3359C19.8307 25.3359 20.4974 25.0582 20.9974 24.5026C21.4974 23.947 22.4974 23.6693 23.9974 23.6693V7.0026C23.9974 6.08594 23.671 5.30122 23.0182 4.64844C22.3655 3.99566 21.5807 3.66927 20.6641 3.66927H7.33073C6.41406 3.66927 5.62934 3.99566 4.97656 4.64844C4.32378 5.30122 3.9974 6.08594 3.9974 7.0026V23.6693C5.4974 23.6693 6.47656 23.947 6.9349 24.5026C7.39323 25.0582 8.08073 25.3359 8.9974 25.3359Z" fill="#1C1B1F"/>
</svg>
